<svg width="85.000000" height="19.000000" viewBox="0 0 85 19" fill="none" xmlns="http://www.w3.org/2000/svg" xmlns:xlink="http://www.w3.org/1999/xlink">
	<desc>
			Created with Pixso.
	</desc>
	<defs>
		<clipPath id="clip1_110">
			<rect id="IMAGE" rx="0.000000" width="84.000000" height="18.000000" transform="translate(0.500000 0.500000)" fill="white" fill-opacity="0"/>
		</clipPath>
	</defs>
	<g clip-path="url(#clip1_110)">
		<path id="Vector" d="M8.82 2.78C9.13 1.87 10.41 1.87 10.72 2.78L11.7 5.67C11.84 6.07 12.22 6.34 12.65 6.34L15.73 6.34C16.71 6.34 17.1 7.61 16.3 8.17L13.89 9.84C13.52 10.09 13.37 10.56 13.51 10.98L14.45 13.74C14.76 14.65 13.73 15.43 12.93 14.89L10.34 13.09C10 12.85 9.54 12.85 9.2 13.09L6.61 14.89C5.82 15.43 4.78 14.65 5.09 13.74L6.03 10.98C6.18 10.56 6.02 10.09 5.65 9.84L3.24 8.17C2.44 7.61 2.83 6.34 3.81 6.34L6.89 6.34C7.32 6.34 7.7 6.07 7.84 5.67L8.82 2.78Z" fill="#FFA858" fill-opacity="1.000000" fill-rule="nonzero"/>
		<path id="Vector" d="M25.01 2.92C25.31 2 26.61 2 26.91 2.92L27.8 5.65C27.93 6.06 28.31 6.34 28.75 6.34L31.62 6.34C32.59 6.34 32.99 7.58 32.21 8.15L29.88 9.84C29.53 10.09 29.39 10.55 29.52 10.96L30.41 13.69C30.71 14.61 29.65 15.38 28.87 14.81L26.55 13.12C26.2 12.86 25.72 12.86 25.37 13.12L23.05 14.81C22.26 15.38 21.21 14.61 21.51 13.69L22.4 10.96C22.53 10.55 22.38 10.09 22.03 9.84L19.71 8.15C18.93 7.58 19.33 6.34 20.3 6.34L23.17 6.34C23.6 6.34 23.99 6.06 24.12 5.65L25.01 2.92Z" fill="#FFA858" fill-opacity="1.000000" fill-rule="nonzero"/>
		<path id="Vector" d="M41.2 2.78C41.51 1.87 42.78 1.87 43.09 2.78L44.08 5.67C44.21 6.07 44.59 6.34 45.02 6.34L48.1 6.34C49.08 6.34 49.48 7.61 48.67 8.17L46.26 9.84C45.89 10.09 45.74 10.56 45.88 10.98L46.82 13.74C47.13 14.65 46.1 15.43 45.31 14.89L42.72 13.09C42.37 12.85 41.92 12.85 41.58 13.09L38.98 14.89C38.19 15.43 37.16 14.65 37.47 13.74L38.41 10.98C38.55 10.56 38.4 10.09 38.03 9.84L35.62 8.17C34.81 7.61 35.21 6.34 36.19 6.34L39.27 6.34C39.7 6.34 40.08 6.07 40.21 5.67L41.2 2.78Z" fill="#FFA858" fill-opacity="1.000000" fill-rule="nonzero"/>
		<path id="Vector" d="M57.38 2.92C57.68 2 58.98 2 59.28 2.92L60.17 5.65C60.3 6.06 60.69 6.34 61.12 6.34L63.99 6.34C64.96 6.34 65.36 7.58 64.58 8.15L62.26 9.84C61.91 10.09 61.76 10.55 61.89 10.96L62.78 13.69C63.08 14.61 62.03 15.38 61.24 14.81L58.92 13.12C58.57 12.86 58.09 12.86 57.74 13.12L55.42 14.81C54.64 15.38 53.58 14.61 53.88 13.69L54.77 10.96C54.9 10.55 54.76 10.09 54.41 9.84L52.08 8.15C51.3 7.58 51.7 6.34 52.67 6.34L55.54 6.34C55.98 6.34 56.36 6.06 56.49 5.65L57.38 2.92Z" fill="#FFA858" fill-opacity="1.000000" fill-rule="nonzero"/>
		<path id="Vector" d="M73.57 2.78C73.88 1.87 75.16 1.87 75.47 2.78L76.45 5.67C76.59 6.07 76.97 6.34 77.4 6.34L80.48 6.34C81.46 6.34 81.85 7.61 81.05 8.17L78.64 9.84C78.27 10.09 78.11 10.56 78.26 10.98L79.2 13.74C79.51 14.65 78.47 15.43 77.68 14.89L75.09 13.09C74.75 12.85 74.29 12.85 73.95 13.09L71.36 14.89C70.56 15.43 69.53 14.65 69.84 13.74L70.78 10.98C70.92 10.56 70.77 10.09 70.4 9.84L67.99 8.17C67.19 7.61 67.58 6.34 68.56 6.34L71.64 6.34C72.07 6.34 72.45 6.07 72.59 5.67L73.57 2.78Z" fill="#FFA858" fill-opacity="1.000000" fill-rule="nonzero"/>
	</g>
</svg>
